<svg xmlns="http://www.w3.org/2000/svg" viewBox="0 0 500 500"><g id="freepik--background-complete--inject-14"><g><g><g><path d="M443.92,307.94h-180.75c-3.23,0-5.86-2.63-5.86-5.86V38.81c0-3.23,2.63-5.86,5.86-5.86h180.75c3.23,0,5.86,2.63,5.86,5.86V302.08c0,3.23-2.63,5.86-5.86,5.86ZM263.17,33.2c-3.09,0-5.61,2.52-5.61,5.61V302.08c0,3.09,2.52,5.61,5.61,5.61h180.75c3.09,0,5.61-2.52,5.61-5.61V38.81c0-3.09-2.52-5.61-5.61-5.61h-180.75Z" style="fill:#e0e0e0;"></path><path d="M235.49,307.94H54.75c-3.23,0-5.86-2.63-5.86-5.86V38.81c0-3.23,2.63-5.86,5.86-5.86H235.49c3.23,0,5.86,2.63,5.86,5.86V302.08c0,3.23-2.63,5.86-5.86,5.86ZM54.75,33.2c-3.09,0-5.61,2.52-5.61,5.61V302.08c0,3.09,2.52,5.61,5.61,5.61H235.49c3.09,0,5.61-2.52,5.61-5.61V38.81c0-3.09-2.52-5.61-5.61-5.61H54.75Z" style="fill:#e0e0e0;"></path></g><rect x="0" y="369.01" width="500" height=".25" style="fill:#e0e0e0;"></rect></g><rect x="51.67" y="383.28" width="16.06" height=".25" style="fill:#e0e0e0;"></rect><rect x="170.35" y="380.57" width="53.53" height=".25" style="fill:#e0e0e0;"></rect><rect x="68.73" y="392.57" width="36.25" height=".25" style="fill:#e0e0e0;"></rect><rect x="378.35" y="380.44" width="43.19" height=".25" style="fill:#e0e0e0;"></rect><rect x="430.45" y="380.44" width="6.33" height=".25" style="fill:#e0e0e0;"></rect><rect x="316.21" y="386.67" width="53.89" height=".25" style="fill:#e0e0e0;"></rect></g><path d="M417.34,287.69c6.53-1.86,14.8-1.19,20.61,2.33,4.1,2.48,6.78,7.09,8.59,11.53,1.81,4.44,.82,10.3-3.26,12.82,9.79-1.14,20,4.61,24.1,13.57s1.76,20.45-5.51,27.11-18.92,7.97-27.49,3.1c-3.16,11.24-12.62,20.82-24.13,22.79-11.5,1.97-24.28-4.65-28.15-15.67-3.87-11.01,2.9-24.91,14.26-27.58-9.34-1.76-15.99-12.3-13.57-21.49,2.42-9.19,13.4-15.08,22.39-12.02,0,0,1.17-13.36,12.14-16.49Z" style="fill:#ebebeb;"></path><path d="M362.46,99.35c-1.15-4.04-.73-9.17,1.44-12.77,1.54-2.54,4.39-4.2,7.14-5.32,2.75-1.12,6.38-.51,7.94,2.02-.71-6.06,2.85-12.39,8.41-14.93,5.55-2.54,12.67-1.09,16.79,3.41,4.12,4.5,4.94,11.72,1.92,17.03,6.96,1.95,12.9,7.82,14.12,14.95s-2.88,15.04-9.7,17.44c-6.82,2.4-15.43-1.8-17.08-8.83-1.09,5.78-7.62,9.91-13.31,8.41-5.69-1.5-9.34-8.3-7.44-13.87,0,0-8.28-.73-10.22-7.52Z" style="fill:#ebebeb;"></path><path d="M34.53,263.28c-1.28-6.84,.2-15.22,4.34-20.82,2.92-3.95,7.88-6.24,12.59-7.67,4.7-1.43,10.59,.14,12.78,4.55-.24-10.1,6.61-19.98,16.15-23.31,9.54-3.33,21.04,.14,27.15,8.2,6.1,8.06,6.33,20.07,.55,28.35,11.17,4.29,20.05,14.87,20.97,26.8,.92,11.93-7.06,24.34-18.67,27.24-11.61,2.9-25.16-5.33-26.8-17.18-2.69,9.37-14.07,15.16-23.23,11.81-9.15-3.34-14.12-15.11-10.14-24,0,0-13.53-2.47-15.68-13.97Z" style="fill:#ebebeb;"></path><path d="M100.25,111.7c-1.72,2.14-4.6,3.86-7.34,4.06-1.93,.14-3.89-.75-5.53-1.79-1.64-1.04-2.68-3.2-1.92-4.99-2.96,2.67-7.67,3.16-11.12,1.16s-5.37-6.33-4.53-10.22c.84-3.9,4.37-7.05,8.34-7.45-1.59-4.44-.71-9.82,2.62-13.16s9.09-4.15,12.94-1.42c3.85,2.73,4.87,8.89,1.75,12.43,3.49-1.6,8.15,.31,9.5,3.91,1.35,3.6-.89,8.11-4.57,9.2,0,0,2.74,4.68-.14,8.28Z" style="fill:#ebebeb;"></path><circle cx="444.49" cy="266.59" r="8.46" transform="translate(-68.84 338.29) rotate(-38.91)" style="fill:#ebebeb;"></circle><circle cx="109.66" cy="82.35" r="4.23" style="fill:#ebebeb;"></circle><path d="M428.88,159.75c-4.76-7.68-17.45-4.44-21.22,.81-3.77,5.25-4.6,12.47-2.13,18.44-10.5-3.76-23.36,3.37-26.12,14.17s4.75,23.01,15.54,25.81c10.79,2.8,23.06-3.88,26.95-14.33,4.87,8.76,17.48,12.09,26.03,6.85,8.55-5.23,11.34-17.97,5.76-26.3,9.36-2.3,16.34-11.9,15.64-21.51-.69-9.61-8.98-18.11-18.57-19.04-9.59-.94-19.36,5.8-21.9,15.09" style="fill:#f5f5f5;"></path><path d="M180.89,133.4c-4.1-6.61-15.01-3.82-18.25,.69-3.24,4.51-3.96,10.73-1.83,15.86-9.03-3.23-20.1,2.9-22.47,12.19-2.37,9.29,4.09,19.79,13.37,22.2,9.28,2.41,19.83-3.34,23.18-12.32,4.19,7.54,15.04,10.39,22.39,5.9,7.36-4.5,9.76-15.46,4.95-22.62,8.05-1.98,14.05-10.23,13.46-18.5-.6-8.27-7.72-15.57-15.97-16.38-8.25-.8-16.65,4.99-18.83,12.98" style="fill:#f5f5f5;"></path></g><g id="freepik--Shadow--inject-14"><path d="M458.88,468.05c0,3.39-93.52,6.13-208.88,6.13s-208.88-2.75-208.88-6.13,93.52-6.13,208.88-6.13,208.88,2.75,208.88,6.13Z" style="fill:#f5f5f5;"></path></g><g id="freepik--Flask--inject-14"><g><g><g><path d="M347.32,423.66c2.25-9.97,8.25-19.65,17.63-23.71,9.38-4.06,22.12-.65,26.2,8.73,7.59-3.3,17.39-.21,21.72,6.84,4.33,7.05,2.65,17.18-3.72,22.46,6.27,1.27,13,2.8,17.24,7.58,4.25,4.78,2.47,17.49-3.51,19.76h-76.97c-.93-10.18-.85-31.69,1.4-41.66Z" style="fill:#92E3A9;"></path><g style="opacity:.8;"><path d="M347.32,423.66c2.25-9.97,8.25-19.65,17.63-23.71,9.38-4.06,22.12-.65,26.2,8.73,7.59-3.3,17.39-.21,21.72,6.84,4.33,7.05,2.65,17.18-3.72,22.46,6.27,1.27,13,2.8,17.24,7.58,4.25,4.78,2.47,17.49-3.51,19.76h-76.97c-.93-10.18-.85-31.69,1.4-41.66Z" style="fill:#fff;"></path></g></g><g><path d="M423,430.77c0,1.9,1.54,3.43,3.43,3.43s3.43-1.54,3.43-3.43-1.54-3.43-3.43-3.43-3.43,1.54-3.43,3.43Z" style="fill:#92E3A9;"></path><path d="M423,430.77c0,1.9,1.54,3.43,3.43,3.43s3.43-1.54,3.43-3.43-1.54-3.43-3.43-3.43-3.43,1.54-3.43,3.43Z" style="fill:#fff; opacity:.8;"></path></g><path d="M408.71,431.02c-.09,0-.18-.02-.27-.08-.23-.15-.3-.46-.16-.69,1.74-2.76,2.17-6.26,1.13-9.36-1.03-3.1-3.47-5.64-6.53-6.8-.26-.1-.39-.39-.29-.64,.1-.26,.39-.39,.64-.29,3.33,1.27,5.99,4.04,7.12,7.42,1.13,3.38,.67,7.2-1.24,10.21-.09,.15-.26,.23-.42,.23Z" style="fill:#fff;"></path><path d="M395.75,413.32c-.26,0-.48-.2-.5-.47-.02-.28,.19-.51,.46-.53l2.53-.17c.27-.03,.51,.19,.53,.46,.02,.28-.19,.51-.46,.53l-2.53,.17s-.02,0-.04,0Z" style="fill:#fff;"></path><path d="M423.95,460.36c-.08,0-.16-.02-.23-.06-.25-.13-.34-.43-.21-.67,1.58-3.04,1.6-6.83,.06-9.89-1.54-3.06-4.6-5.3-7.99-5.84-.27-.04-.46-.3-.42-.57,.04-.27,.29-.46,.57-.42,3.69,.59,7.04,3.03,8.72,6.38s1.66,7.48-.06,10.8c-.09,.17-.26,.27-.44,.27Z" style="fill:#fff;"></path></g><g><path d="M211.91,213.73c2.29-.65,5.19-.42,7.22,.82,1.44,.87,2.38,2.48,3.01,4.04,.64,1.56,.29,3.61-1.14,4.49,3.43-.4,7.01,1.62,8.45,4.76,1.44,3.14,.62,7.17-1.93,9.5-2.55,2.33-6.63,2.79-9.63,1.09-1.11,3.94-4.42,7.3-8.46,7.99-4.03,.69-8.51-1.63-9.87-5.49-1.36-3.86,1.02-8.73,5-9.67-3.27-.62-5.61-4.31-4.76-7.53,.85-3.22,4.7-5.29,7.85-4.21,0,0,.41-4.68,4.26-5.78Z" style="fill:#92E3A9;"></path><g style="opacity:.8;"><path d="M211.91,213.73c2.29-.65,5.19-.42,7.22,.82,1.44,.87,2.38,2.48,3.01,4.04,.64,1.56,.29,3.61-1.14,4.49,3.43-.4,7.01,1.62,8.45,4.76,1.44,3.14,.62,7.17-1.93,9.5-2.55,2.33-6.63,2.79-9.63,1.09-1.11,3.94-4.42,7.3-8.46,7.99-4.03,.69-8.51-1.63-9.87-5.49-1.36-3.86,1.02-8.73,5-9.67-3.27-.62-5.61-4.31-4.76-7.53,.85-3.22,4.7-5.29,7.85-4.21,0,0,.41-4.68,4.26-5.78Z" style="fill:#fff;"></path></g></g><path d="M328.66,284.24c5.8-9.5,2.32-23.45-7.26-29.12,10.31-6.55,21.01-14.5,24.37-26.25,3.36-11.75-5.45-27.13-17.54-25.38,14.91-3.4,26.21-18.52,25.24-33.78-.96-15.26-14.07-28.84-29.29-30.34,6.5-13.29,1.14-31.16-11.61-38.68-12.75-7.51-28.87-2.12-37.35,10-16.1-5.72-37.66,8.28-35.75,25.25l14.3,41.55c.88,31.2,4.78,62.32,11.65,92.77,3.18,14.1,7.1,28.31,14.92,40.46,7.82,12.16,20.13,22.13,34.46,24.01,14.33,1.87,30.24-6.08,34.67-19.84,4.43-13.76-6.37-31.04-20.82-30.66Zm7.67-113.38c4.24,0,7.68,3.44,7.68,7.68s-3.44,7.68-7.68,7.68-7.68-3.44-7.68-7.68,3.44-7.68,7.68-7.68Zm-6.01,19.47c1.76,0,3.19,1.43,3.19,3.19s-1.43,3.19-3.19,3.19-3.19-1.43-3.19-3.19,1.43-3.19,3.19-3.19Z" style="fill:#92E3A9;"></path><g style="opacity:.8;"><path d="M328.66,284.24c5.8-9.5,2.32-23.45-7.26-29.12,10.31-6.55,21.01-14.5,24.37-26.25,3.36-11.75-5.45-27.13-17.54-25.38,14.91-3.4,26.21-18.52,25.24-33.78-.96-15.26-14.07-28.84-29.29-30.34,6.5-13.29,1.14-31.16-11.61-38.68-12.75-7.51-28.87-2.12-37.35,10-16.1-5.72-37.66,8.28-35.75,25.25l14.3,41.55c.88,31.2,4.78,62.32,11.65,92.77,3.18,14.1,7.1,28.31,14.92,40.46,7.82,12.16,20.13,22.13,34.46,24.01,14.33,1.87,30.24-6.08,34.67-19.84,4.43-13.76-6.37-31.04-20.82-30.66Zm7.67-113.38c4.24,0,7.68,3.44,7.68,7.68s-3.44,7.68-7.68,7.68-7.68-3.44-7.68-7.68,3.44-7.68,7.68-7.68Zm-6.01,19.47c1.76,0,3.19,1.43,3.19,3.19s-1.43,3.19-3.19,3.19-3.19-1.43-3.19-3.19,1.43-3.19,3.19-3.19Z" style="fill:#fff;"></path></g><g><path d="M196.53,401.55c-3.42-15.17-12.54-29.88-26.81-36.05-14.27-6.17-33.64-.99-39.85,13.27-11.54-5.01-26.44-.32-33.02,10.4-6.59,10.72-4.04,26.13,5.65,34.16-9.53,1.93-19.76,4.26-26.22,11.53-6.46,7.27-3.76,26.59,5.34,30.05h117.04c1.42-15.48,1.29-48.19-2.13-63.35Z" style="fill:#92E3A9;"></path><g style="opacity:.8;"><path d="M196.53,401.55c-3.42-15.17-12.54-29.88-26.81-36.05-14.27-6.17-33.64-.99-39.85,13.27-11.54-5.01-26.44-.32-33.02,10.4-6.59,10.72-4.04,26.13,5.65,34.16-9.53,1.93-19.76,4.26-26.22,11.53-6.46,7.27-3.76,26.59,5.34,30.05h117.04c1.42-15.48,1.29-48.19-2.13-63.35Z" style="fill:#fff;"></path></g></g><g><ellipse cx="268.22" cy="334.47" rx="57.94" ry="4.5"></ellipse><path d="M160.22,445.39l87.11-193.57,.02-2.67c0-.24,.17-24.15,.25-47.84,.05-13.93,.06-25.06,.03-33.09,0-.91,0-14.43,0-15.26h40.69v97.47l87.8,194.97c1.56,3.47-.98,7.4-4.78,7.4H165c-3.81,0-6.34-3.93-4.78-7.4Z" style="fill:#92E3A9; opacity:.3;"></path><rect x="222.47" y="134.45" width="90.38" height="18.5" rx="7.46" ry="7.46" style="fill:#92E3A9;"></rect><path d="M234.7,152.95c.68,0,0,96.11,0,96.11l-87.12,193.6c-4.81,10.69,3.01,22.78,14.73,22.78h212.77c11.22,0,18.71-11.58,14.1-21.82l-88.22-195.91v-94.75h-66.27Z" style="fill:#92E3A9;"></path><path d="M234.7,152.95c.68,0,0,96.11,0,96.11l-87.12,193.6c-4.81,10.69,3.01,22.78,14.73,22.78h212.77c11.22,0,18.71-11.58,14.1-21.82l-88.22-195.91v-94.75h-66.27Z" style="fill:#fff; opacity:.6;"></path><path d="M160.22,445.39l87.11-193.57,.02-2.67c0-.24,.17-24.15,.25-47.84,.05-13.93,.06-25.06,.03-33.09,0-.91,0-14.43,0-15.26h40.69v97.47l87.8,194.97c1.56,3.47-.98,7.4-4.78,7.4H165c-3.81,0-6.34-3.93-4.78-7.4Z" style="fill:#92E3A9; opacity:.3;"></path><rect x="234.7" y="152.95" width="66.27" height="6.51" style="opacity:.3;"></rect><path d="M376.11,445.39l-50.15-111.37-115.81,.42-49.93,110.95c-1.56,3.47,.98,7.4,4.78,7.4h206.33c3.81,0,6.34-3.93,4.78-7.4Z" style="fill:#92E3A9;"></path><ellipse cx="268.17" cy="334.47" rx="57.94" ry="4.5" style="fill:#92E3A9;"></ellipse><ellipse cx="268.17" cy="334.47" rx="57.94" ry="4.5" style="opacity:.3;"></ellipse><rect x="222.47" y="134.45" width="90.38" height="18.5" rx="7.46" ry="7.46" style="fill:#fff; opacity:.6;"></rect><g style="opacity:.3;"><path d="M260.73,140.22c-1.02-.89-2.3-.92-3.51-.91-7.25,0-14.5,0-21.76,0-1.13,0-2.39,.07-3.19,1.18-.8,1.11-1.83,4.67,2.22,4.75,9.4,.47,15.9,1.28,24.65,.48,.89-.08,1.88-.25,2.43-1.21,.75-1.31,.17-3.4-.85-4.28Z" style="fill:#fff;"></path></g><path d="M271.41,142.36c0,1.69-1.37,3.06-3.06,3.06s-3.06-1.37-3.06-3.06,1.37-3.06,3.06-3.06,3.06,1.37,3.06,3.06Z" style="fill:#fff; opacity:.3;"></path><g><g style="opacity:.5;"><path d="M248.85,301.96c3.33,2.5,1.46,7.32,.81,9.27-4.69,14-7.22,24.51-12.69,38.31-1.69,4.26-4.06,8.45-7.74,11.17-3.68,2.73-9.45,3.22-12.52-.17-3.33-3.68-1.93-9.45-.34-14.15,3.3-9.72,6.6-19.44,9.9-29.17,1.33-3.92,2.7-7.92,5.18-11.24,2.48-3.32,6.29-5.92,10.43-5.89,0,0,4.96,.37,6.97,1.87Z" style="fill:#fff;"></path></g><path d="M221.53,383.43c-2.59,6.38-8.28,10.1-12.7,8.31-4.42-1.8-5.91-8.43-3.32-14.81,2.59-6.38,8.28-10.1,12.7-8.31,4.42,1.8,5.91,8.43,3.32,14.81Z" style="fill:#fff; opacity:.5;"></path></g><circle cx="331.95" cy="416.19" r="7.69" style="opacity:.2;"></circle><circle cx="280.7" cy="413.11" r="10.76" style="opacity:.2;"></circle><circle cx="295.05" cy="396.56" r="5.38" style="opacity:.2;"></circle><circle cx="310.77" cy="413.88" r="4.36" style="opacity:.2;"></circle></g><g><path d="M79.53,340.21c2.64-.75,5.98-.48,8.33,.94,1.66,1,2.74,2.86,3.47,4.66,.73,1.79,.33,4.16-1.32,5.18,3.96-.46,8.08,1.86,9.74,5.48,1.66,3.62,.71,8.26-2.22,10.95-2.94,2.69-7.64,3.22-11.11,1.25-1.27,4.54-5.1,8.41-9.75,9.21-4.65,.8-9.81-1.88-11.37-6.33s1.17-10.07,5.76-11.14c-3.77-.71-6.46-4.97-5.48-8.68s5.41-6.09,9.05-4.86c0,0,.47-5.4,4.91-6.66Z" style="fill:#92E3A9;"></path><g style="opacity:.8;"><path d="M79.53,340.21c2.64-.75,5.98-.48,8.33,.94,1.66,1,2.74,2.86,3.47,4.66,.73,1.79,.33,4.16-1.32,5.18,3.96-.46,8.08,1.86,9.74,5.48,1.66,3.62,.71,8.26-2.22,10.95-2.94,2.69-7.64,3.22-11.11,1.25-1.27,4.54-5.1,8.41-9.75,9.21-4.65,.8-9.81-1.88-11.37-6.33s1.17-10.07,5.76-11.14c-3.77-.71-6.46-4.97-5.48-8.68s5.41-6.09,9.05-4.86c0,0,.47-5.4,4.91-6.66Z" style="fill:#fff;"></path></g></g><g><circle cx="76.24" cy="412.36" r="5.22" style="fill:#92E3A9;"></circle><circle cx="76.24" cy="412.36" r="5.22" style="fill:#fff; opacity:.8;"></circle></g><g><path d="M354.58,259.57c0,2.88-2.34,5.22-5.22,5.22s-5.22-2.34-5.22-5.22,2.34-5.22,5.22-5.22,5.22,2.34,5.22,5.22Z" style="fill:#92E3A9;"></path><path d="M354.58,259.57c0,2.88-2.34,5.22-5.22,5.22s-5.22-2.34-5.22-5.22,2.34-5.22,5.22-5.22,5.22,2.34,5.22,5.22Z" style="fill:#fff; opacity:.8;"></path></g><path d="M345.03,132.04c0,2.4-1.95,4.35-4.35,4.35s-4.35-1.95-4.35-4.35,1.95-4.35,4.35-4.35,4.35,1.95,4.35,4.35Z" style="fill:#92E3A9;"></path><path d="M345.03,132.04c0,2.4-1.95,4.35-4.35,4.35s-4.35-1.95-4.35-4.35,1.95-4.35,4.35-4.35,4.35,1.95,4.35,4.35Z" style="fill:#fff; opacity:.8;"></path><path d="M280.94,114.23c-.09,0-.19-.03-.27-.08-.23-.15-.3-.46-.15-.69,2.78-4.3,6.99-7.56,11.84-9.19,4.85-1.63,10.17-1.56,14.99,.19,.26,.09,.39,.38,.3,.64-.09,.26-.38,.39-.64,.3-4.6-1.67-9.69-1.73-14.33-.18-4.64,1.56-8.66,4.68-11.32,8.78-.1,.15-.26,.23-.42,.23Z" style="fill:#fff;"></path><path d="M247.36,128.95c-.07,0-.14-.02-.21-.05-.25-.12-.36-.41-.24-.66,3.57-7.67,12-12.94,20.44-12.88,.28,0,.5,.23,.5,.51,0,.27-.23,.49-.5,.49h0c-.07,0-.14,0-.2,0-8.01,0-15.93,5.03-19.32,12.3-.08,.18-.27,.29-.45,.29Z" style="fill:#fff;"></path><path d="M272.59,116.61s-.04,0-.07,0l-1.42-.18c-.27-.04-.47-.29-.43-.56,.04-.27,.29-.47,.56-.43l1.42,.18c.27,.04,.47,.29,.43,.56-.03,.25-.25,.44-.5,.44Z" style="fill:#fff;"></path><path d="M344.91,157.72c-.17,0-.34-.09-.43-.25-4.4-7.63-13.59-12.34-22.34-11.44-.27,.02-.52-.17-.55-.45-.03-.27,.17-.52,.45-.55,9.15-.92,18.72,3.98,23.31,11.94,.14,.24,.06,.54-.18,.68-.08,.05-.17,.07-.25,.07Z" style="fill:#fff;"></path><path d="M337.93,212.53c-.16,0-.31-.07-.41-.21-2.09-3-5.66-4.99-9.31-5.18-3.66-.19-7.41,1.42-9.79,4.2-.18,.21-.49,.23-.71,.05-.21-.18-.23-.5-.05-.71,2.58-3.01,6.64-4.75,10.6-4.54,3.96,.2,7.82,2.35,10.08,5.6,.16,.23,.1,.54-.12,.7-.09,.06-.19,.09-.29,.09Z" style="fill:#fff;"></path><path d="M103.18,412.49c-.17,0-.33-.08-.42-.23-2.85-4.52-3.54-10.24-1.85-15.3,1.69-5.07,5.68-9.23,10.67-11.12,.26-.09,.55,.03,.65,.29,.1,.26-.03,.55-.29,.65-4.71,1.79-8.48,5.72-10.08,10.51-1.6,4.78-.94,10.19,1.75,14.45,.15,.23,.08,.54-.16,.69-.08,.05-.18,.08-.27,.08Z" style="fill:#fff;"></path><path d="M122.89,385.57s-.02,0-.03,0l-3.85-.26c-.28-.02-.48-.26-.47-.53s.26-.48,.53-.46l3.85,.26c.28,.02,.48,.26,.47,.53-.02,.26-.24,.47-.5,.47Z" style="fill:#fff;"></path><path d="M80.01,457.09c-.18,0-.36-.1-.44-.27-2.58-4.98-2.62-11.18-.09-16.19,2.52-5.01,7.53-8.67,13.07-9.55,.28-.04,.53,.14,.57,.42,.04,.27-.14,.53-.41,.57-5.23,.84-9.95,4.29-12.33,9.02-2.38,4.73-2.35,10.58,.09,15.28,.13,.25,.03,.55-.21,.67-.07,.04-.15,.06-.23,.06Z" style="fill:#fff;"></path></g></g><g id="freepik--Stars--inject-14"><g><polygon points="80.35 267.17 82.23 270.6 85.66 272.48 82.23 274.35 80.35 277.79 78.48 274.35 75.04 272.48 78.48 270.6 80.35 267.17" style="fill:#92E3A9;"></polygon><polygon points="387.83 240.97 389.71 244.4 393.14 246.28 389.71 248.16 387.83 251.59 385.95 248.16 382.52 246.28 385.95 244.4 387.83 240.97" style="fill:#92E3A9;"></polygon><polygon points="374.97 342.27 376.34 344.77 378.84 346.14 376.34 347.5 374.97 350.01 373.6 347.5 371.1 346.14 373.6 344.77 374.97 342.27" style="fill:#92E3A9;"></polygon><polygon points="382.44 359.92 383.22 361.34 384.63 362.11 383.22 362.89 382.44 364.31 381.66 362.89 380.25 362.11 381.66 361.34 382.44 359.92" style="fill:#92E3A9;"></polygon><polygon points="371.27 273.34 372.58 275.73 374.97 277.04 372.58 278.35 371.27 280.74 369.96 278.35 367.57 277.04 369.96 275.73 371.27 273.34" style="fill:#92E3A9;"></polygon><polygon points="107.27 264.78 108.11 266.32 109.66 267.17 108.11 268.01 107.27 269.56 106.42 268.01 104.88 267.17 106.42 266.32 107.27 264.78" style="fill:#92E3A9;"></polygon><polygon points="398.86 265.32 399.51 266.51 400.71 267.17 399.51 267.82 398.86 269.02 398.2 267.82 397.01 267.17 398.2 266.51 398.86 265.32" style="fill:#92E3A9;"></polygon><polygon points="326.85 85.16 329.67 87.87 333.51 88.62 330.81 91.45 330.06 95.29 327.23 92.58 323.39 91.83 326.09 89 326.85 85.16" style="fill:#92E3A9;"></polygon><polygon points="304.97 75.29 306.94 77.18 309.61 77.71 307.73 79.68 307.2 82.35 305.23 80.47 302.55 79.94 304.44 77.97 304.97 75.29" style="fill:#92E3A9;"></polygon><polygon points="326.54 66.62 327.52 67.56 328.86 67.83 327.92 68.81 327.66 70.15 326.67 69.21 325.33 68.94 326.28 67.96 326.54 66.62" style="fill:#92E3A9;"></polygon><polygon points="92.98 251.14 93.4 251.91 94.17 252.33 93.4 252.75 92.98 253.51 92.56 252.75 91.8 252.33 92.56 251.91 92.98 251.14" style="fill:#92E3A9;"></polygon></g></g><g id="freepik--Speech_Bubble--inject-14"><g><g><path d="M194.67,58.07c11.31-7.24,26.36-3.94,33.6,7.38,7.24,11.31,3.94,26.36-7.38,33.6-8.73,5.59-19.68,4.87-27.55-.94l-7.15,1.49,1.34-7.6c-.07-.11-.16-.21-.23-.33-7.24-11.31-3.94-26.36,7.38-33.6Z" style="fill:#92E3A9;"></path><path d="M228.07,60.1c-.07,0-.14-.03-.19-.09-4.92-6.04-13.1-9.37-20.84-8.48-.14,.01-.26-.08-.28-.22-.02-.14,.08-.26,.22-.28,7.91-.91,16.26,2.49,21.29,8.66,.09,.11,.07,.26-.04,.35-.05,.04-.1,.06-.16,.06Z" style="fill:#92E3A9;"></path><path d="M199.93,52.96c-.09,0-.18-.05-.22-.14-.06-.12,0-.27,.12-.33,1.11-.54,2.35-.85,3.58-.9,.15,0,.25,.1,.26,.24,0,.14-.1,.25-.24,.26-1.17,.05-2.34,.34-3.38,.85-.04,.02-.07,.03-.11,.03Z" style="fill:#92E3A9;"></path><g style="opacity:.6;"><path d="M194.67,58.07c11.31-7.24,26.36-3.94,33.6,7.38,7.24,11.31,3.94,26.36-7.38,33.6-8.73,5.59-19.68,4.87-27.55-.94l-7.15,1.49,1.34-7.6c-.07-.11-.16-.21-.23-.33-7.24-11.31-3.94-26.36,7.38-33.6Z" style="fill:#fff;"></path></g></g><g><g><circle cx="208.27" cy="76.22" r="4.43" style="fill:#92E3A9;"></circle><path d="M200.18,81.85c0,1.74-1.41,3.15-3.15,3.15s-3.15-1.41-3.15-3.15,1.41-3.15,3.15-3.15,3.15,1.41,3.15,3.15Z" style="fill:#92E3A9;"></path><path d="M203.47,68.44c0,1.09-.88,1.97-1.97,1.97s-1.97-.88-1.97-1.97,.88-1.97,1.97-1.97,1.97,.88,1.97,1.97Z" style="fill:#92E3A9;"></path><circle cx="217.78" cy="79.51" r="1.97" style="fill:#92E3A9;"></circle><circle cx="218.13" cy="70.41" r="2.7" style="fill:#92E3A9;"></circle><path d="M214.08,90.17c0,1.74-1.41,3.15-3.15,3.15s-3.15-1.41-3.15-3.15,1.41-3.15,3.15-3.15,3.15,1.41,3.15,3.15Z" style="fill:#92E3A9;"></path><polygon points="210.68 89.8 209.65 77.98 206.94 77.27 197.71 81.29 197.51 80.84 206.9 76.74 210.12 77.59 211.18 89.76 210.68 89.8" style="fill:#92E3A9;"></polygon><polygon points="216.76 79.61 211.75 78.43 205.43 74.03 201.3 68.59 201.69 68.29 205.8 73.69 211.99 77.99 216.88 79.13 216.76 79.61" style="fill:#92E3A9;"></polygon></g><rect x="208.31" y="73.62" width="8.78" height=".5" transform="translate(-4.6 132.87) rotate(-34.34)" style="fill:#92E3A9;"></rect></g></g></g><g id="freepik--Character--inject-14"><g><g><path d="M82.45,181.14l-1.81-3-9.23-2.74-6.92,4.05s-2.36,2.36-3.41,3.31c-1.06,.96,.54,2.14,1.72,2.69,1.18,.56,20.77,7.4,20.77,7.4l4.27-10.02-5.39-1.7Z" style="fill:#b97964;"></path><path d="M133.94,146.78c-5.65,2.77-9.94,7.7-11.94,13.67-3.58,10.71-5.63,27.15-5.63,27.15,0,0-24.49-5.63-30.12-6.45l-4.67,13.06s32.34,15.1,35.51,15.95c9.37,2.5,14.2-13.72,14.2-13.72l3.29-49.96-.63,.31Z" style="fill:#92E3A9;"></path><path d="M133.94,146.78c-5.65,2.77-9.94,7.7-11.94,13.67-3.58,10.71-5.63,27.15-5.63,27.15,0,0-24.49-5.63-30.12-6.45l-4.67,13.06s32.34,15.1,35.51,15.95c9.37,2.5,14.2-13.72,14.2-13.72l3.29-49.96-.63,.31Z" style="fill:#fff; opacity:.4;"></path><g><g><g><path d="M73.35,183.23l.54-17.63-5.43-1.09-5.43,1.09,.54,17.63s-11.26,4.61-10.58,16.01c.51,8.59,5.92,12,11.88,13.14,2.37,.45,4.81,.45,7.18,0,5.95-1.13,11.36-4.54,11.88-13.14,.68-11.39-10.58-16.01-10.58-16.01Z" style="fill:#92E3A9;"></path><path d="M73.35,183.23l.54-17.63-5.43-1.09-5.43,1.09,.54,17.63s-11.26,4.61-10.58,16.01c.51,8.59,5.92,12,11.88,13.14,2.37,.45,4.81,.45,7.18,0,5.95-1.13,11.36-4.54,11.88-13.14,.68-11.39-10.58-16.01-10.58-16.01Z" style="fill:#fff; opacity:.7;"></path><path d="M72.39,183.89l.24-17.5-4.33-.22-4.17,.2,.44,17.58s-10.88,4.56-10.26,14.99c.49,8.31,6,11.33,11.81,12.18,1.56,.23,3.14,.23,4.7,0,5.8-.85,11.31-3.87,11.81-12.18,.62-10.43-10.23-15.05-10.23-15.05Z" style="fill:#92E3A9; opacity:.3;"></path><rect x="61.08" y="163.19" width="14.45" height="3.19" rx="1.36" ry="1.36" style="fill:#92E3A9;"></rect><rect x="61.08" y="163.19" width="14.45" height="3.19" rx="1.36" ry="1.36" style="fill:#fff; opacity:.7;"></rect><polygon points="63.07 166.38 63.1 167.35 73.84 167.35 73.87 166.38 63.07 166.38" style="opacity:.3;"></polygon><rect x="63.19" y="164" width="4.94" height=".83" rx=".35" ry=".35" style="fill:#fff; opacity:.3;"></rect><path d="M54.32,198.93c.49,8.31,6,11.33,11.81,12.18,1.56,.23,3.14,.23,4.7,0,5.8-.85,11.31-3.87,11.81-12.18h-28.31Z" style="fill:#92E3A9;"></path><path d="M70.82,210.29c-1.56,.23-3.14,.23-4.7,0-5.61-.82-10.94-3.67-11.74-11.36h-.07c.49,8.31,6,11.33,11.81,12.18,1.56,.23,3.14,.23,4.7,0,5.8-.85,11.31-3.87,11.81-12.18h-.07c-.8,7.69-6.13,10.54-11.74,11.36Z" style="fill:#fff; opacity:.5;"></path><ellipse cx="68.37" cy="198.93" rx="14.08" ry=".82" style="fill:#92E3A9;"></ellipse><ellipse cx="68.37" cy="198.93" rx="14.08" ry=".82" style="opacity:.3;"></ellipse></g><g style="opacity:.3;"><path d="M63.95,187.47c.66,.26,1.18,.85,1.22,1.57s-.27,1.4-.67,1.99-.89,1.11-1.28,1.71c-.47,.71-.78,1.5-1.17,2.26-.39,.75-.88,1.49-1.59,1.95-.71,.46-1.68,.6-2.41,.16-.88-.54-1.12-1.72-1.06-2.75,.17-3.07,2.36-5.93,5.28-6.9,0,0,.93-.27,1.68,.02Z" style="fill:#fff;"></path></g></g><g><path d="M73.06,208.42c3.46-1.44,6.07-4.01,7.58-7.44-.41,3.76-3.82,7.1-7.58,7.44h0Z" style="fill:#fff;"></path><path d="M81.12,200.29c1.45,0,1.45-2.25,0-2.25s-1.45,2.25,0,2.25h0Z" style="fill:#fff;"></path></g></g><path d="M82.45,181.14s-.66-3.38-2.27-5.24c-1.61-1.86-10.19-4.17-10.19-4.17,0,0-1.76,1.69,.87,4.17s3.76,3.65,3.76,3.65c0,0-1.33,2.32,2.37,4.46,3.7,2.15,5.45-2.88,5.45-2.88Z" style="fill:#b97964;"></path><path d="M67.26,180.22c.82-1.36-.39-3-.39-3,0,0-2.19-2.52-2.57-2.68-.3-.13-.58-.55-1.31-.39-1.62,.37-1.87,1.76-.67,3.12,0,0-1.83,.28-1.02,2.65,0,0-1.91,.73,.17,2.88,2.09,2.15,3.65,3.45,4.7,2.1s-.19-3.2-.19-3.2c0,0,.45-.13,1.28-1.49Z" style="fill:#b97964;"></path><g><path d="M60.69,155.88h-.02l-2.1-.28c-.07,0-.12-.07-.11-.14,0-.07,.07-.12,.14-.11l2.1,.28c.07,0,.12,.07,.11,.14,0,.06-.06,.11-.12,.11Z" style="fill:#92E3A9; opacity:.3;"></path><path d="M61.44,154.96s-.09-.03-.11-.08l-.78-1.81c-.03-.06,0-.14,.07-.16,.06-.03,.14,0,.16,.07l.78,1.81c.03,.06,0,.14-.07,.16-.02,0-.03,.01-.05,.01Z" style="fill:#92E3A9; opacity:.3;"></path><path d="M62.91,155.06s-.05,0-.07-.02c-.06-.04-.07-.12-.03-.17l1.21-1.75c.04-.06,.12-.07,.17-.03,.06,.04,.07,.12,.03,.17l-1.21,1.75s-.06,.05-.1,.05Z" style="fill:#92E3A9; opacity:.3;"></path><path d="M63.37,159.01c-.05,0-.1-.03-.12-.08l-.71-1.84c-.02-.06,0-.14,.07-.16,.06-.03,.14,0,.16,.07l.71,1.84c.02,.06,0,.14-.07,.16-.01,0-.03,0-.04,0Z" style="fill:#92E3A9; opacity:.3;"></path><path d="M60.06,158.64s-.05,0-.08-.02c-.06-.04-.07-.12-.02-.18l1.27-1.7c.04-.06,.12-.07,.18-.02,.06,.04,.07,.12,.02,.18l-1.27,1.7s-.06,.05-.1,.05Z" style="fill:#92E3A9; opacity:.3;"></path><path d="M65.34,156.29h0l-1.97-.13c-.07,0-.12-.06-.12-.13,0-.07,.05-.13,.13-.12l1.97,.13c.07,0,.12,.06,.12,.13,0,.07-.06,.12-.12,.12Z" style="fill:#92E3A9; opacity:.3;"></path></g><g style="opacity:.3;"><path d="M72.76,156.85h-.02l-.97-.13c-.07,0-.12-.07-.11-.14,0-.07,.07-.11,.14-.11l.97,.13c.07,0,.12,.07,.11,.14,0,.06-.06,.11-.12,.11Z" style="fill:#92E3A9;"></path><path d="M73.11,156.42s-.09-.03-.11-.08l-.36-.84c-.03-.06,0-.14,.07-.16,.06-.03,.14,0,.16,.07l.36,.84c.03,.06,0,.14-.07,.16-.02,0-.03,.01-.05,.01Z" style="fill:#92E3A9;"></path><path d="M73.79,156.47s-.05,0-.07-.02c-.06-.04-.07-.12-.03-.17l.56-.81c.04-.06,.12-.07,.17-.03,.06,.04,.07,.12,.03,.17l-.56,.81s-.06,.05-.1,.05Z" style="fill:#92E3A9;"></path><path d="M74,158.3c-.05,0-.1-.03-.12-.08l-.33-.85c-.02-.06,0-.14,.07-.16,.06-.03,.14,0,.16,.07l.33,.85c.02,.06,0,.14-.07,.16-.01,0-.03,0-.04,0Z" style="fill:#92E3A9;"></path><path d="M72.47,158.13s-.05,0-.08-.02c-.06-.04-.07-.12-.02-.18l.59-.79c.04-.05,.12-.06,.18-.02,.06,.04,.07,.12,.02,.18l-.59,.79s-.06,.05-.1,.05Z" style="fill:#92E3A9;"></path><path d="M74.92,157.04h0l-.91-.06c-.07,0-.12-.06-.12-.13,0-.07,.06-.12,.12-.12h0l.91,.06c.07,0,.12,.06,.12,.13,0,.07-.06,.12-.12,.12Z" style="fill:#92E3A9;"></path></g><g><path d="M69.47,149.9h-.02l-.97-.13c-.07,0-.12-.07-.11-.14,0-.07,.08-.11,.14-.11l.97,.13c.07,0,.12,.07,.11,.14,0,.06-.06,.11-.12,.11Z" style="fill:#92E3A9;"></path><path d="M69.82,149.47s-.09-.03-.11-.08l-.36-.84c-.03-.06,0-.14,.07-.16,.06-.03,.14,0,.16,.07l.36,.84c.03,.06,0,.14-.07,.16-.02,0-.03,.01-.05,.01Z" style="fill:#92E3A9;"></path><path d="M70.5,149.52s-.05,0-.07-.02c-.06-.04-.07-.12-.03-.17l.56-.81c.04-.06,.12-.07,.17-.03,.06,.04,.07,.12,.03,.17l-.56,.81s-.06,.05-.1,.05Z" style="fill:#92E3A9;"></path><path d="M70.71,151.35c-.05,0-.1-.03-.12-.08l-.33-.85c-.02-.06,0-.14,.07-.16,.06-.03,.14,0,.16,.07l.33,.85c.02,.06,0,.14-.07,.16-.01,0-.03,0-.04,0Z" style="fill:#92E3A9;"></path><path d="M69.18,151.18s-.05,0-.08-.02c-.06-.04-.07-.12-.02-.18l.59-.79c.04-.06,.12-.07,.18-.02,.06,.04,.07,.12,.02,.18l-.59,.79s-.06,.05-.1,.05Z" style="fill:#92E3A9;"></path><path d="M71.62,150.09h0l-.91-.06c-.07,0-.12-.06-.12-.13,0-.07,.06-.13,.13-.12l.91,.06c.07,0,.12,.06,.12,.13,0,.07-.06,.12-.12,.12Z" style="fill:#92E3A9;"></path></g><path d="M66.5,160.31c-.43,0-.77-.35-.77-.77s.35-.77,.77-.77,.77,.35,.77,.77-.35,.77-.77,.77Zm0-1.29c-.29,0-.52,.23-.52,.52s.23,.52,.52,.52,.52-.23,.52-.52-.23-.52-.52-.52Z" style="fill:#fff; opacity:.3;"></path></g><g><path d="M182.98,138.59c1.51-.75,3.01-1.7,3.9-3.14s1.01-3.47-.12-4.73c-.98-1.1-2.75-1.52-3.23-2.9-.39-1.11,.25-2.29,.7-3.38,1.57-3.86,.59-8.63-2.38-11.56-1.11-1.1-2.48-1.97-3.31-3.29-.89-1.43-1.04-3.18-1.3-4.84-.76-4.88-2.85-9.71-6.62-12.89-3.77-3.18-9.4-4.39-13.81-2.16l6.99,58.19c5.03,1.99,10.6,3,15.88,1.82,1.88-.42,3.74-1.13,5.16-2.43,1.42-1.29,2.35-3.24,2.06-5.15-.29-1.9-1.99-3.6-3.92-3.54Z" style="fill:#263238;"></path><path d="M125.5,121.06c-3.05,.72-5.66,3.08-6.68,6.05s-.43,6.43,1.52,8.88c-3.05,2.44-3.93,7.1-2.24,10.63,1.69,3.52,5.65,5.73,9.55,5.62,3.9-.12,7.61-2.41,9.73-5.69l7.02-59.38c-13.57,5.58-21.81,21.03-18.89,33.9Z" style="fill:#263238;"></path><g><path d="M128.96,134.08c.15,.25,.3,.51,.48,.75-5.32,4.13,.11,9.56,1.75,10.4,1.25,.66,2.58,1.14,3.97,1.43,6.55,1.4,12.16-2.06,15.17-3.76,4.33-2.46,4.13-11.19,6.6-15.71,3.23-5.92,8.66-20.53,3.75-31.5-2.35-5.16-4.53-7.18-4.53-7.18-2.69-2.62-6.77-3.04-10.36-1.88-3.59,1.16-6.57,3.72-9.2,6.56-4.74,5.03-8.17,11.07-10.02,17.64-1.69,6.21,.3,8.26,1.66,12.2l-.02,.12c-1.09,3.62-1.07,7.79,.77,10.92Z" style="fill:#263238;"></path><path d="M141.55,147.26s9.14-1.04,18.66-1.05c5.49,0,3.92-6.01,10.49-1.42,2.37-4.37,1.19-9.81-1.43-14.05-.55-.9-1.21-1.73-1.97-2.47-.56-.55-1.17-1.04-1.82-1.47-.36-.23-.72-.45-1.1-.64-.98-.54-2.04-.95-3.13-1.22-1.82-.45-3.72-.51-5.57-.18-2.65,.54-5.13,1.74-7.2,3.48h0c-1,.82-1.9,1.74-2.71,2.74-.41,.49-.8,1.02-1.16,1.58-.47,.71-.89,1.45-1.27,2.21-.02,.07-.04,.15-.04,.22h0c-.92,2.45-1.26,5.08-1,7.69,.14,1.64-.98,3.24-.74,4.59Z" style="fill:#263238;"></path><path d="M146.77,158.32c1.94,2,3.71,1.33,6.29,.27,15.39-5.53,10.83-12.96,10.83-12.96-2.92-3.43-3.05-7.52-1.98-13.77,.02-.18,.03-.37,.02-.55-.01-.83-.28-1.64-.77-2.32-1.29-1.88-3.85-2.36-5.73-1.08h0l-6.89,1.97h0c-.02,.09-.04,.19-.06,.3-.02,3.42,.08,6.07,.05,8.15-.05,.25,0,.52-.02,.76h0c-.05,.25-.03,.52-.03,.77-.17,2.86-5,7.05-6.97,8.05-1.19,.68-1.33,3.66,5.25,10.4Z" style="fill:#b97964;"></path><path d="M167.11,108.14c-.26,11.78-.12,16.75-5.71,23.15-8.43,9.61-22.54,7.04-25.79-4.52-2.84-10.41-1.99-27.89,9.12-33.29s22.64,2.87,22.38,14.66Z" style="fill:#b97964;"></path><path d="M162.83,108.44c-2.38,1.2-2,12.27,3.68,11.81,5.68-.46,4.13-15.73-3.68-11.81Z" style="fill:#263238;"></path><path d="M172.33,118.23c-1.19,2.54-3.33,4.26-5.37,4.96-3.06,1.05-5.1-3.85-4.3-7.07,.72-2.9,3.64-5.03,6.74-4.67,3.05,.35,4.29,3.88,2.93,6.79Z" style="fill:#b97964;"></path><path d="M165.66,118.4c-.14,0-.25-.11-.25-.25-.02-1.2,.44-2.38,1.27-3.24,.83-.86,1.99-1.37,3.19-1.4,.12,0,.25,.11,.25,.25,0,.14-.11,.25-.25,.25-1.07,.02-2.1,.48-2.84,1.24s-1.15,1.82-1.13,2.89c0,.14-.11,.25-.25,.25h0Z" style="opacity:.2;"></path><g><g><path d="M151.76,113.21c.05,1.26-.54,2.34-1.32,2.42-.78,.08-1.44-.87-1.49-2.13-.05-1.26,.54-2.34,1.32-2.42,.78-.08,1.44,.87,1.49,2.13Z" style="fill:#263238;"></path><path d="M140.1,114.16c.04,1.22-.55,2.27-1.32,2.35-.77,.08-1.44-.84-1.48-2.06-.04-1.22,.55-2.27,1.32-2.35,.77-.08,1.44,.84,1.48,2.06Z" style="fill:#263238;"></path><path d="M153.86,108.64c-.15,.03-.31,0-.43-.1-1.96-1.53-3.96-.77-3.99-.76-.3,.11-.62-.03-.71-.34-.1-.3,.07-.65,.37-.77,.1-.04,2.62-1,5.05,.9,.24,.19,.28,.56,.08,.82-.1,.13-.23,.21-.37,.24Z" style="fill:#263238;"></path><path d="M135.68,108.56c-.12-.03-.23-.11-.29-.24-.13-.26-.03-.61,.23-.78,2.57-1.75,4.67-.76,4.76-.72,.25,.12,.34,.45,.19,.74-.14,.29-.46,.42-.71,.3-.08-.04-1.72-.78-3.77,.61-.13,.09-.28,.12-.41,.08Z" style="fill:#263238;"></path><path d="M143.22,113.31s-1.48,4.58-3.33,7.52c-.32,.51-.04,1.2,.55,1.36,1.51,.41,3.17-.22,3.17-.22l-.39-8.66Z" style="fill:#a24e3f;"></path></g><path d="M150.72,111.1l-2.77-.41s1.66,1.9,2.77,.41Z" style="fill:#263238;"></path><path d="M138.9,112.11l-2.77-.41s1.65,1.9,2.77,.41Z" style="fill:#263238;"></path></g></g><g><path d="M144.38,125.21c.98,1.1,2.29,3.31,2.29,3.31,.22-.08,.44-.17,.66-.26,2.98-1.2,3.97-2.74,4.16-4.08,.1-.74-.05-1.42-.23-1.95-.21-.61-.5-1-.5-1-1.2,1.58-3.89,2.91-5.36,3.56-.61,.28-1.01,.42-1.01,.42Z" style="fill:#263238;"></path><path d="M145.39,124.78l.7,.96c2.8-1.13,4.63-2.31,5.16-3.51-.21-.61-.5-1-.5-1-1.2,1.58-3.89,2.91-5.36,3.56Z" style="fill:#fff;"></path><path d="M147.33,128.25c2.98-1.2,3.97-2.74,4.16-4.08-1,.45-2.16,1.1-3.05,1.99-.68,.68-.99,1.42-1.11,2.1Z" style="fill:#de5753;"></path></g><path d="M159.56,93.2c-.4-1.18-1.74-1.71-2.96-1.98-4.36-.98-9.04-.45-13.06,1.49-4.03,1.93-7.37,5.25-9.33,9.26l.93,.95c3.67,.91,7.79-.33,10.35-3.12,1.81,1.36,4.32,1.48,6.48,.8,2.16-.68,4.01-2.07,5.72-3.54,1.15-.99,2.36-2.41,1.88-3.85Z" style="fill:#263238;"></path><path d="M158.99,109.1c-.58,0-24.97-.01-26.23,.76-1.26,.77-1.55,10.78,2.03,11.36,3.58,.58,4.98,.08,5.84-1.69,.86-1.78,1-4.76,2.07-4.45,1.08,.31,.39,5.56,6.7,5.54,6.31-.02,7.4-1.23,7.4-4.12,0-2.2,.34-3.83,.34-3.83l1.84-.49v-3.08Z" style="fill:#fff; opacity:.3;"></path><path d="M173.42,102.43c-1.11-3.11-3.24-5.91-6.13-7.5-2.89-1.59-6.57-1.83-9.5-.31l-.43,3.24c-.4,4.39-.28,8.82,.34,13.18,.2,1.38,.45,2.79,1.1,4.03,.64,1.24,1.73,2.32,3.09,2.65,2.08,.5,4.12-.81,5.86-2.05,2.45-1.75,5.04-3.68,6.02-6.53,.74-2.16,.43-4.56-.34-6.71Z" style="fill:#263238;"></path><path d="M179.04,116.68c-1.27-3.83-4.12-7.24-7.91-8.61l-8.56,9.89c-2.19,1.01-3.75,3.25-3.95,5.65-.2,2.4,.98,4.86,2.97,6.22-1.49,.34-2.77,1.37-3.61,2.66-.83,1.28-1.25,2.8-1.42,4.33-.19,1.8,0,3.75,1.14,5.16,1.37,1.72,3.78,2.24,5.97,2.09,3.89-.26,7.55-2.27,10.21-5.13s4.35-6.52,5.28-10.3c.97-3.92,1.15-8.11-.12-11.94Z" style="fill:#263238;"></path></g><path d="M106.17,329.32s65.88,.66,70.06,.42c4.19-.24-11.88-42.07-11.88-42.07,0,0-21.92-32.06-21.9-31.95,.02,.12-36.29,73.6-36.29,73.6Z" style="fill:#92E3A9;"></path><g><g><path d="M183.96,445.66l-1.22,1.7-2.42-1.04-1.51,7.46-10.21,14.27s-3.89,.62-.83-7.48c.14-.37,.25-.78,.32-1.23,.91-4.85-1.09-14.15-1.09-14.15l5.6-7.83s.58,0,1.58,.17c2.32,.39,6.96,1.52,9.77,8.12Z" style="fill:#92E3A9;"></path><path d="M183.96,445.66l-1.22,1.7-2.42-1.04-1.51,7.46-10.21,14.27s-3.89,.62-.83-7.48c.14-.37,.25-.78,.32-1.23,.91-4.85-1.09-14.15-1.09-14.15l5.6-7.83s.58,0,1.58,.17c2.32,.39,6.96,1.52,9.77,8.12Z" style="opacity:.2;"></path><path d="M174.19,437.53l.02,.02c-1.88,.2-.23,8.56-.99,13.25-.68,4.18-2.49,8.13-5.13,8.54,.91-4.85-2.37-15.9-2.37-15.9l4.51-6.29s2.96,.23,3.95,.39Z" style="fill:#a24e3f;"></path></g><g><path d="M168.33,467.51h-2.08l-.58-2.59-6.89,3.13h-17.45s-2.78-2.81,5.54-5.05c.38-.1,.77-.25,1.18-.45,4.43-2.09,10.74-9.17,10.74-9.17h9.58s.33,.48,.78,1.39c1.05,2.12,2.85,6.58-.81,12.74Z" style="fill:#92E3A9;"></path><path d="M169.14,454.77v.03c-1.26-1.42-7.02,4.82-11.23,6.94-3.76,1.89-7.99,2.72-9.87,.81,4.43-2.09,11.47-11.72,11.47-11.72l7.69,.23s1.49,2.79,1.94,3.7Z" style="fill:#b97964;"></path></g><path d="M152.46,370.43c-4.75-13.09-10.57-25.97-17.55-36.39,28.56-81.93,27.67-118.58,27.67-118.58l-34.39-.03-3.66,13.7s-8.59,34.11-11.1,53.69l-7.18,43.53v.12c-.49,9.04,1.51,18.02,5.79,25.97,4.67,8.69,12.94,19,17.48,28.36,5.97,12.36,11.6,24.74,16.41,35.82,5.07,11.68,9.2,21.89,11.77,28.98,2.44,.28,9.79-4.14,11.91-8.15,0,0-5.21-34.17-17.13-67.03Z" style="fill:#263238;"></path><path d="M143.59,311.24c4.19-13.92,8.88-21.86,11.01-32.2,.02-2.41-8-12.75-12.09-16.91,0,0-4.91,19.75,1.08,49.12Z" style="opacity:.2;"></path><path d="M145.92,416.63c5.07,11.68,9.2,21.89,11.77,28.98,2.44,.28,9.79-4.14,11.91-8.15,0,0-5.21-34.17-17.13-67.03-2.42,13.57-5.13,30.71-6.55,46.2Z" style="opacity:.2;"></path><path d="M136.87,216.21s13.09,90.5,14.61,110.88c0,0,8.09,98.84,6.64,123.68l18.04,.88s12.13-74.86,6-122.9c-.53-6.26,5.05-47.11,5.94-63.38,2.12-39.15-13.76-49.9-13.76-49.9l-37.46,.75Z" style="fill:#263238;"></path></g><path d="M172.15,218.69c1.01-11.4,5.05-32.3,12.03-54.25,2.27-7.14-1.58-15.2-1.58-15.2,0,0-9.49-.25-10.45-.35-1.05-.12-2.13-.23-3.21-.32-8.14-.68-14.81-1.17-22.08-.75-1.83,.11-3.7,.26-5.54,.41-.59,.06-4.45,.12-5.03,.18,0,0-10.44,12.22-11.01,20.84-.3,4.82-2.63,6.89-2.37,18.42,.05,7.83,5.73,19.23,6.24,30.24l42.99,.78Z" style="fill:#fff;"></path><path d="M146.73,143.41s-13.15,18.08-14.97,33.34c-1.07,8.99-1.59,32.09-2.16,38.73-.93,10.95-17.16,94.21-23.43,113.83l-7.37-2.28,26.04-111.61s-5.28-32.73-3.88-40.92c1.41-8.19,13.61-28.05,13.61-28.05l5.57-.38,6.59-2.67Z" style="fill:#92E3A9;"></path><path d="M146.73,143.41s-10.33,15.27-14.07,28.52c-2.46,8.71-2.5,36.91-3.07,43.55-.93,10.95-17.16,94.21-23.43,113.83l-7.37-2.28,26.04-111.61s-5.28-32.73-3.88-40.92c1.41-8.19,13.61-28.05,13.61-28.05l5.57-.38,6.59-2.67Z" style="fill:#fff; opacity:.4;"></path><path d="M123.81,208.66l-2.98-26.6v28.35s1.91-.98,2.98-1.75Z" style="opacity:.3;"></path><path d="M142.71,148.68l5.39-7.41,2.57,4.41,7.78-5.74,4.4,3.16-2.34,10.28s-11.11,3.49-11.61,3.49-6.19-8.19-6.19-8.19Z" style="fill:#fff;"></path><g><path d="M162.58,330.53l32.17-1.86-1.83-57.16c-.62-21.2-5.46-42.07-14.23-61.39l-3.69-8.12s1.59-.54,4.33-10.82c1.32-5,2.71-10.31,3.88-15.04,1.71-6.81,2.98-12.46,3.08-14.3,.3-5.76-6.68-14.88-6.68-14.88l-16.75-3.84s-4.34,13.89-5.06,37.27c-.72,23.36,4.79,150.16,4.79,150.16Z" style="fill:#92E3A9;"></path><path d="M162.58,330.53l32.17-1.86-1.83-57.16c-.62-21.2-5.46-42.07-14.23-61.39l-3.69-8.12s1.59-.54,4.33-10.82c1.32-5,2.71-10.31,3.88-15.04,1.71-6.81,2.98-12.46,3.08-14.3,.3-5.76-6.68-14.88-6.68-14.88l-16.75-3.84s-4.34,13.89-5.06,37.27c-.72,23.36,4.79,150.16,4.79,150.16Z" style="fill:#fff; opacity:.4;"></path><path d="M177.53,186.71c.5,1.29,1.28,2.18,2.21,2.78,1.32-5,2.71-10.31,3.88-15.04-3.08-3.74-5.68-6.88-5.68-6.88,0,0-3.55,11.1-.41,19.14Z" style="opacity:.2;"></path><polygon points="158.14 209.99 178.01 208.64 179.59 212.17 158.24 213.88 158.14 209.99" style="opacity:.2;"></polygon><path d="M157.73,197.83c.14-.03,21.08-4.42,21.08-4.42l.18-1.01-21.16,3.4-.1,2.02Z" style="opacity:.2;"></path></g><polygon points="142.21 149.91 150.21 146.54 157.73 151.56 162.81 143.74 159.09 153.83 149.82 147.7 141.52 151.56 142.21 149.91" style="opacity:.2;"></polygon><polygon points="146.93 153.13 135.78 208.42 139.79 220.18 150.67 206.78 151.33 153.83 146.93 153.13" style="fill:#92E3A9;"></polygon><polygon points="145.76 148.41 146.93 153.13 151.33 153.83 153.95 149.04 150.21 146.54 145.76 148.41" style="fill:#92E3A9;"></polygon><g><g><path d="M153.64,213.38c0,.27-2.86,.5-6.39,.5s-6.39-.22-6.39-.5,2.86-.5,6.39-.5,6.39,.22,6.39,.5Z"></path><path d="M135.34,225.62l9.61-21.35v-.29s.02-2.66,.03-5.28c0-1.54,0-2.76,0-3.65,0-.1,0-1.59,0-1.68h4.49v10.75l9.68,21.51c.17,.38-.11,.82-.53,.82h-22.76c-.42,0-.7-.43-.53-.82Z" style="fill:#92E3A9; opacity:.3;"></path><rect x="142.21" y="191.31" width="9.97" height="2.04" rx=".87" ry=".87" style="fill:#92E3A9;"></rect><path d="M143.55,193.36c.07,0,0,10.6,0,10.6l-9.61,21.36c-.53,1.18,.33,2.51,1.62,2.51h23.47c1.24,0,2.06-1.28,1.56-2.41l-9.73-21.61v-10.45h-7.31Z" style="fill:#92E3A9;"></path><path d="M143.53,193.36c.07,0,0,10.6,0,10.6l-9.61,21.36c-.53,1.18,.33,2.51,1.62,2.51h23.47c1.24,0,2.06-1.28,1.56-2.41l-9.73-21.61v-10.45h-7.31Z" style="fill:#fff; opacity:.7;"></path><path d="M135.34,225.62l9.61-21.35v-.29s.02-2.66,.03-5.28c0-1.54,0-2.76,0-3.65,0-.1,0-1.59,0-1.68h4.49v10.75l9.68,21.51c.17,.38-.11,.82-.53,.82h-22.76c-.42,0-.7-.43-.53-.82Z" style="fill:#92E3A9; opacity:.3;"></path><rect x="143.55" y="193.36" width="7.31" height=".72" style="opacity:.3;"></rect><path d="M159.15,225.62l-5.53-12.29-12.78,.05-5.51,12.24c-.17,.38,.11,.82,.53,.82h22.76c.42,0,.7-.43,.53-.82Z" style="fill:#92E3A9;"></path><ellipse cx="147.25" cy="213.38" rx="6.39" ry=".5" style="fill:#92E3A9;"></ellipse><ellipse cx="147.25" cy="213.38" rx="6.39" ry=".5" style="opacity:.3;"></ellipse><rect x="142.21" y="191.31" width="9.97" height="2.04" rx=".87" ry=".87" style="fill:#fff; opacity:.7;"></rect><path d="M146.43,191.95c-.11-.1-.25-.1-.39-.1-.8,0-1.6,0-2.4,0-.12,0-.26,0-.35,.13s-.2,.51,.24,.52c1.04,.05,1.75,.14,2.72,.05,.1,0,.21-.03,.27-.13,.08-.14,.02-.37-.09-.47Z" style="fill:#fff;"></path><path d="M147.6,192.19c0,.19-.15,.34-.34,.34s-.34-.15-.34-.34,.15-.34,.34-.34,.34,.15,.34,.34Z" style="fill:#fff;"></path><g style="opacity:.3;"><path d="M146.6,208.4c.52,.39,.23,1.15,.13,1.46-.74,2.2-1.13,3.85-1.99,6.02-.27,.67-.64,1.33-1.22,1.75-.58,.43-1.48,.51-1.97-.03-.52-.58-.3-1.48-.05-2.22,.52-1.53,1.04-3.05,1.56-4.58,.21-.62,.42-1.24,.81-1.77s.99-.93,1.64-.92c0,0,.78,.06,1.09,.29Z" style="fill:#fff;"></path></g><path d="M142.31,221.2c-.41,1-1.3,1.59-1.99,1.3s-.93-1.32-.52-2.33c.41-1,1.3-1.59,2-1.3s.93,1.32,.52,2.33Z" style="fill:#fff; opacity:.3;"></path></g><path d="M143.98,196.78l9.91,2.86,2.08,6.61c-.95,5.37-11.2,3.08-11.2,3.08l-2.1,1.33c-1.71,1.08-5.76-.11-6.11-2.11l-.24-5.12c-.18-1.04,1.18-3.04,2.01-3.69l3.14-2.47c.71-.56,1.65-.75,2.52-.49Z" style="fill:#b97964;"></path><path d="M179.24,146.91c6.67-.29,22.08,31.81,28.09,47.45,1.78,4.63-2.14,10.57-5.58,11.53-7.72,2.13-46.4,4.27-46.4,4.27l-1.47-11.51,32.89-6.89-10.52-15.87s-3.94-8-3.2-15.43c.74-7.42,6.19-13.53,6.19-13.53Z" style="fill:#92E3A9;"></path><path d="M186.78,191.74s4.87-.76,7.97,1.82c0,0-3.33-5.34-9.32-3.86l1.35,2.04Z" style="opacity:.2;"></path><path d="M179.24,146.91c6.67-.29,22.08,31.81,28.09,47.45,1.78,4.63-2.14,10.57-5.58,11.53-7.72,2.13-46.4,4.27-46.4,4.27l-1.47-11.51,32.89-6.89-10.52-15.87s-3.94-8-3.2-15.43c.74-7.42,6.19-13.53,6.19-13.53Z" style="fill:#fff; opacity:.4;"></path></g></g></g></svg>
